<svg xmlns="http://www.w3.org/2000/svg" viewBox="0 0 53.23 30.88"><defs><style>.cls-1{fill:#f2c12d;}</style></defs><title>kroontje</title><g id="Layer_2" data-name="Layer 2"><g id="Layer_2-2" data-name="Layer 2"><path class="cls-1" d="M2.62,4.39C1.68,4.32-.46,5.68.09,7.64a3.53,3.53,0,0,0,2.33,2.43,179,179,0,0,1,2.84,18c-.72.6-.61,1.72.1,2s2.74,1.86,24.82-.13,23.72-4.27,22-5.89c-.27-3.19-.9-15.74-.57-18.6a2.84,2.84,0,0,0-1-5.4c-3.11-.2-4.37,4.58-.91,5.64-.91,3.7-2.46,9.94-3.24,10s-6.33-7.7-6.24-7.93c1.51-1,1.65-4.76-1.39-4.56s-2.17,4-.48,4.65c-1.72,2.43-2.92,5.34-3.62,5.39S27.87,7.42,28,7s1.85-1,1.87-3.12S28.71.15,26.36.29s-3,2.38-3,3.7a3.27,3.27,0,0,0,2.16,2.88c-.91,1.29-4.66,8.21-5,8.17s-4.71-5.18-4.71-5.18c1.26-.58,2.1-4.36-1.16-4.4S12,9.41,13.8,10c-1.26,2.6-4,9.11-4.69,9.16s-5.2-8.75-5-9.21C5.26,9.55,7,4.69,2.62,4.39Z"/></g></g></svg>