<svg xmlns="http://www.w3.org/2000/svg" xmlns:xlink="http://www.w3.org/1999/xlink" viewBox="0 0 48.48 36.07"><defs><style>.cls-1{fill:#f56b00;}.cls-10,.cls-11,.cls-2,.cls-3{fill:none;stroke:#f55000;}.cls-10,.cls-2{stroke-miterlimit:10;}.cls-2,.cls-3{stroke-width:0.49px;}.cls-11,.cls-3{stroke-linecap:round;stroke-linejoin:round;}.cls-4{opacity:0.3;}.cls-5{fill:#fff;}.cls-6{opacity:0.2;}.cls-7{clip-path:url(#clip-path);}.cls-8{fill:#f16667;}.cls-9{clip-path:url(#clip-path-2);}.cls-10,.cls-11{stroke-width:0.64px;}.cls-12{clip-path:url(#clip-path-3);}</style><clipPath id="clip-path"><path d="M34.08,15.32a32.16,32.16,0,0,0,7.44,0c.67.06-.36,3.13-3.15,3.17S33.17,15.62,34.08,15.32Z"/></clipPath><clipPath id="clip-path-2"><path d="M7.1,15.32a32.16,32.16,0,0,0,7.44,0c.67.06-.37,3.13-3.15,3.17S6.19,15.62,7.1,15.32Z"/></clipPath><clipPath id="clip-path-3"><path d="M19.26,29.34s6,.69,9.57,0c.86.08-.47,4.08-4,4.12S18.09,29.74,19.26,29.34Z"/></clipPath></defs><title>Asset 76</title><g id="Layer_2" data-name="Layer 2"><g id="Layer_2-2" data-name="Layer 2"><path class="cls-1" d="M32.74,2.14A2.93,2.93,0,0,1,34.92.48a2.83,2.83,0,0,1,2.67,1.06S39,.16,40.14.25A2.8,2.8,0,0,1,42.59,2V2.3c1.53-.74,2.76,2,2.76,2,2.08,4.38,3,9.68,2.86,11.36-.43,1.65-3.4,4.43-10.56,4.57S27.47,17,27.23,15.81a64.06,64.06,0,0,1,2.88-11.2,3.24,3.24,0,0,1,2.63-2.47"/><path class="cls-2" d="M35.24,3.48a2.18,2.18,0,0,0-2.5-1.34,3.24,3.24,0,0,0-2.63,2.47,64.06,64.06,0,0,0-2.88,11.2c.24,1.18,3.26,4.57,10.42,4.43s10.13-2.92,10.56-4.57c.19-1.68-.78-7-2.86-11.36s-4.79-1.09-4.79-1.09"/><path class="cls-3" d="M42,5.72a3.93,3.93,0,0,0-4.22-3.21c-2.94.07-3.65,3.35-3.65,3.35"/><path class="cls-3" d="M32.74,2.14A2.93,2.93,0,0,1,34.92.48a2.83,2.83,0,0,1,2.67,1.06S39,.16,40.14.25A2.8,2.8,0,0,1,42.59,2"/><g class="cls-4"><path d="M40.47,13.4A12.84,12.84,0,0,0,43.22,13,.49.49,0,0,0,43,12a11.17,11.17,0,0,1-2.49.41c-.63,0-.63,1,0,1Z"/></g><g class="cls-4"><path d="M32,12.78a7.06,7.06,0,0,0,2.76.6.49.49,0,0,0,0-1,5.7,5.7,0,0,1-2.27-.47c-.57-.25-1.07.59-.49.85Z"/></g><ellipse cx="34.15" cy="10.61" rx="2.26" ry="2.26"/><ellipse class="cls-5" cx="33.59" cy="9.94" rx="1.42" ry="0.92" transform="translate(-0.49 18.06) rotate(-29.88)"/><ellipse class="cls-5" cx="35.36" cy="11.85" rx="0.81" ry="0.28" transform="translate(1.09 26.55) rotate(-41.74)"/><ellipse cx="41.36" cy="10.61" rx="2.26" ry="2.26"/><ellipse class="cls-5" cx="40.8" cy="9.94" rx="1.42" ry="0.92" transform="translate(0.47 21.65) rotate(-29.88)"/><ellipse class="cls-5" cx="42.58" cy="11.85" rx="0.81" ry="0.28" transform="translate(2.92 31.35) rotate(-41.74)"/><g class="cls-6"><path d="M42.72,4.2c1.3.42,1.7,2.75,2,3.92l.94-.26c-.45-1.68-1-4.3-2.95-4.85-.51-.15-.89.66-.37.9a1,1,0,0,1,.58.44l.67-.67a8.89,8.89,0,0,0-.81-.42c-.46-.21-1.06.38-.6.77a5.15,5.15,0,0,1,2.22,4.21.49.49,0,0,0,.62.47c1.2-.49.93-1.54.51-2.57s-1.13-2.87-2.37-3.25c-.79-.24-1.73.32-1.14,1.16.45.63,1.19,1,1.64,1.71a4.25,4.25,0,0,1,.72,2.34.49.49,0,0,0,1,0,5.47,5.47,0,0,0-1.59-3.77,4.89,4.89,0,0,0-.46-.45c-.16-.15-.54-.63-.21-.07.23.4.54.74.76,1.15s1.54,2.55.91,2.81l.62.47a6.1,6.1,0,0,0-2.5-4.91l-.6.77a6.4,6.4,0,0,1,.82.43.49.49,0,0,0,.66-.67,1.87,1.87,0,0,0-.93-.8L42.41,4c1.48.43,1.92,2.89,2.27,4.17a.49.49,0,0,0,.94-.26c-.35-1.59-.87-4-2.64-4.6-.6-.2-.86.75-.26.94Z"/></g><g class="cls-6"><path d="M32.57,3.42c-1.76.57-2.29,3-2.64,4.6a.49.49,0,0,0,.95.26c.33-1.27.79-3.75,2.26-4.17l-.38-.89a1.92,1.92,0,0,0-.93.8.49.49,0,0,0,.67.67,5.68,5.68,0,0,1,.81-.43l-.59-.77A6.08,6.08,0,0,0,30.21,8.4l.62-.47c-.61-.25.63-2.3.83-2.66a7.74,7.74,0,0,1,.68-1c.2-.27.56-.64.07-.3a4.38,4.38,0,0,0-.58.56,5.47,5.47,0,0,0-1.59,3.77.49.49,0,0,0,1,0,4.18,4.18,0,0,1,.71-2.34,21,21,0,0,1,1.6-1.66c.69-.83-.29-1.45-1.09-1.21-1.21.36-1.87,2.06-2.31,3.1s-.83,2.2.44,2.72c.29.13.63-.18.62-.47a5.15,5.15,0,0,1,2.22-4.21c.46-.39-.13-1-.6-.77a8.89,8.89,0,0,0-.81.42l.67.67a1,1,0,0,1,.59-.44c.51-.24.14-1.05-.38-.9-1.93.55-2.5,3.17-3,4.85l.95.26c.25-1.16.65-3.5,1.95-3.92.6-.19.34-1.14-.26-.94Z"/></g><g class="cls-6"><path d="M39.59,4.63A1.59,1.59,0,0,1,38.2,5.72c-.55.07-1.91-.08-1.7-1l-.9.12c.34.73,1.32.85,2,.91a4.11,4.11,0,0,0,2.65-.62l-.67-.67a2.32,2.32,0,0,1-2.85.69c-.57-.26-1.06.58-.49.84a3.34,3.34,0,0,0,4.19-1c.3-.39-.28-.92-.67-.67a3.14,3.14,0,0,1-1.65.51c-.39,0-1.49,0-1.69-.44a.49.49,0,0,0-.89.11c-.31,1.35.9,2.12,2.1,2.22a2.67,2.67,0,0,0,2.87-1.81c.19-.6-.76-.86-.94-.26Z"/></g><g class="cls-4"><path d="M33.71,16.05c1.15,3.34,8.39,4.33,8.25-.17,0-.47-.75-.47-.73,0,.11,3.64-5.95,2.49-6.81,0-.16-.44-.86-.25-.71.19Z"/></g><path d="M34.08,15.32a32.16,32.16,0,0,0,7.44,0c.67.06-.36,3.13-3.15,3.17S33.17,15.62,34.08,15.32Z"/><g class="cls-7"><path class="cls-8" d="M36.2,18.3A2.18,2.18,0,0,1,38,16.9a3.52,3.52,0,0,1,2.75.59c.59.49-.77,1.34-1.12,1.29A11.21,11.21,0,0,1,36.2,18.3Z"/></g><g class="cls-6"><path d="M34.87,1.88a2.09,2.09,0,0,1,.64-.21c.46-.07.27-.78-.19-.7a2.55,2.55,0,0,0-.82.27c-.42.22,0,.85.37.64Z"/></g><g class="cls-6"><path d="M41.49,1.59a1,1,0,0,0-1-.78.37.37,0,0,0,0,.74.26.26,0,0,1,.33.23.36.36,0,0,0,.7-.19Z"/></g><g class="cls-6"><path class="cls-5" d="M28.44,13.39c-.13,1.43-.18,3.2,1.07,4.19a.88.88,0,0,0,1.31-.06c.37-.53-.05-1.11-.31-1.58A3.87,3.87,0,0,1,30,14.47a4,4,0,0,0-.05-1,.89.89,0,0,0-1.16-.55c-.56.25-.56,1.09-.56,1.6a5.28,5.28,0,0,0,.56,2.27c.27.57,1.11.07.84-.49a4.4,4.4,0,0,1-.37-1.13,4,4,0,0,1-.05-.78c0-.16.16-.61-.07-.45-.4.28.06,1.53.21,1.89.07.18.32.93.51,1s0-.27-.06-.31a2.42,2.42,0,0,1-.27-.5,5.84,5.84,0,0,1-.14-2.6c.06-.63-.92-.62-1,0Z"/></g><g class="cls-6"><path class="cls-5" d="M46.43,13.59A5.62,5.62,0,0,1,46,16c-.11.21-.28.36-.4.55s-.41.73.06.11a8.25,8.25,0,0,0,.57-.84c.17-.3.81-1.7.42-1.87-.2-.09-.11.18-.12.34a3.51,3.51,0,0,1-.12.78,4.54,4.54,0,0,1-.61,1.3c-.35.53.5,1,.84.49.49-.73,1.65-3.29.38-3.83a.88.88,0,0,0-1.13.51,5.78,5.78,0,0,0-.21,1.1A3.86,3.86,0,0,1,45,15.89c-.32.46-.87,1-.5,1.6a.9.9,0,0,0,1.3.15c1.36-.85,1.53-2.6,1.6-4.05,0-.62-.95-.62-1,0Z"/></g><path class="cls-1" d="M5.75,2.14A3,3,0,0,1,7.94.48a2.83,2.83,0,0,1,2.67,1.06S12,.16,13.15.25A2.8,2.8,0,0,1,15.61,2V2.3c1.53-.74,2.76,2,2.76,2,2.08,4.38,3.05,9.68,2.86,11.36-.43,1.65-3.4,4.43-10.56,4.57S.49,17,.25,15.81A64.06,64.06,0,0,1,3.13,4.61,3.22,3.22,0,0,1,5.75,2.14"/><path class="cls-2" d="M8.26,3.48A2.19,2.19,0,0,0,5.75,2.14,3.22,3.22,0,0,0,3.13,4.61,64.06,64.06,0,0,0,.25,15.81C.49,17,3.51,20.38,10.67,20.24s10.13-2.92,10.56-4.57c.19-1.68-.78-7-2.86-11.36s-4.8-1.09-4.8-1.09"/><path class="cls-3" d="M15,5.72a3.93,3.93,0,0,0-4.22-3.21C7.81,2.58,7.1,5.86,7.1,5.86"/><path class="cls-3" d="M5.75,2.14A3,3,0,0,1,7.94.48a2.83,2.83,0,0,1,2.67,1.06S12,.16,13.15.25A2.8,2.8,0,0,1,15.61,2"/><g class="cls-4"><path d="M13.48,13.4A12.83,12.83,0,0,0,16.24,13,.49.49,0,0,0,16,12a11.16,11.16,0,0,1-2.5.41c-.62,0-.62,1,0,1Z"/></g><g class="cls-4"><path d="M5.05,12.78a7,7,0,0,0,2.75.6.49.49,0,0,0,0-1,5.68,5.68,0,0,1-2.26-.47c-.57-.25-1.07.59-.49.85Z"/></g><ellipse cx="7.17" cy="10.61" rx="2.26" ry="2.26"/><ellipse class="cls-5" cx="6.61" cy="9.94" rx="1.42" ry="0.92" transform="translate(-4.07 4.61) rotate(-29.88)"/><ellipse class="cls-5" cx="8.38" cy="11.85" rx="0.81" ry="0.28" transform="translate(-5.76 8.59) rotate(-41.74)"/><ellipse cx="14.38" cy="10.61" rx="2.26" ry="2.26"/><ellipse class="cls-5" cx="13.82" cy="9.94" rx="1.42" ry="0.92" transform="translate(-3.12 8.21) rotate(-29.88)"/><ellipse class="cls-5" cx="15.59" cy="11.85" rx="0.81" ry="0.28" transform="translate(-3.93 13.39) rotate(-41.74)"/><g class="cls-6"><path d="M15.74,4.2c1.3.42,1.7,2.75,2,3.92l.94-.26c-.45-1.68-1-4.3-3-4.85-.52-.15-.89.66-.37.9a1,1,0,0,1,.58.44l.67-.67a8.89,8.89,0,0,0-.81-.42c-.46-.21-1.06.38-.6.77a5.15,5.15,0,0,1,2.22,4.21.49.49,0,0,0,.62.47c1.2-.49.93-1.54.51-2.57s-1.13-2.87-2.38-3.25c-.78-.24-1.73.32-1.13,1.16.45.63,1.19,1,1.64,1.71a4.16,4.16,0,0,1,.71,2.34.49.49,0,0,0,1,0,5.47,5.47,0,0,0-1.59-3.77c-.15-.16-.3-.31-.46-.45s-.54-.63-.22-.07c.24.4.54.74.77,1.15s1.54,2.55.91,2.81l.62.47a6.08,6.08,0,0,0-2.51-4.91l-.59.77a5.68,5.68,0,0,1,.81.43.49.49,0,0,0,.67-.67,1.92,1.92,0,0,0-.93-.8L15.43,4c1.48.43,1.92,2.89,2.27,4.17a.49.49,0,0,0,.94-.26c-.35-1.59-.88-4-2.64-4.6-.6-.2-.86.75-.26.94Z"/></g><g class="cls-6"><path d="M5.59,3.42C3.83,4,3.3,6.43,3,8a.49.49,0,0,0,.94.26c.34-1.27.8-3.75,2.27-4.17l-.38-.89a1.92,1.92,0,0,0-.93.8.49.49,0,0,0,.66.67,6.4,6.4,0,0,1,.82-.43l-.6-.77A6.1,6.1,0,0,0,3.23,8.4l.62-.47c-.61-.25.62-2.3.82-2.66a8.92,8.92,0,0,1,.69-1c.2-.27.56-.64.07-.3a4.38,4.38,0,0,0-.58.56A5.47,5.47,0,0,0,3.26,8.26a.49.49,0,0,0,1,0A4.27,4.27,0,0,1,5,5.92a21,21,0,0,1,1.6-1.66c.69-.83-.29-1.45-1.1-1.21-1.21.36-1.86,2.06-2.31,3.1s-.82,2.2.45,2.72c.29.13.63-.18.62-.47A5.15,5.15,0,0,1,6.43,4.19c.46-.39-.13-1-.6-.77A8.89,8.89,0,0,0,5,3.84l.67.67a1,1,0,0,1,.58-.44c.51-.24.15-1.05-.37-.9C4,3.72,3.4,6.34,3,8l.94.26c.26-1.16.66-3.5,2-3.92.59-.19.34-1.14-.26-.94Z"/></g><g class="cls-6"><path d="M12.6,4.63a1.57,1.57,0,0,1-1.38,1.09c-.55.07-1.91-.08-1.7-1l-.9.12c.33.73,1.31.85,2,.91a4.15,4.15,0,0,0,2.66-.62l-.67-.67a2.32,2.32,0,0,1-2.85.69c-.57-.26-1.06.58-.49.84a3.34,3.34,0,0,0,4.19-1c.3-.39-.28-.92-.67-.67a3.14,3.14,0,0,1-1.65.51c-.39,0-1.49,0-1.69-.44a.5.5,0,0,0-.9.11c-.3,1.35.91,2.12,2.1,2.22a2.68,2.68,0,0,0,2.88-1.81c.19-.6-.76-.86-1-.26Z"/></g><g class="cls-4"><path d="M6.73,16.05c1.15,3.34,8.39,4.33,8.25-.17,0-.47-.75-.47-.74,0,.12,3.64-5.94,2.49-6.8,0-.16-.44-.87-.25-.71.19Z"/></g><path d="M7.1,15.32a32.16,32.16,0,0,0,7.44,0c.67.06-.37,3.13-3.15,3.17S6.19,15.62,7.1,15.32Z"/><g class="cls-9"><path class="cls-8" d="M9.21,18.3A2.2,2.2,0,0,1,11,16.9a3.5,3.5,0,0,1,2.75.59c.6.49-.76,1.34-1.11,1.29A11.3,11.3,0,0,1,9.21,18.3Z"/></g><g class="cls-6"><path d="M7.89,1.88a2.09,2.09,0,0,1,.64-.21C9,1.6,8.8.89,8.33,1a2.58,2.58,0,0,0-.81.27c-.42.22,0,.85.37.64Z"/></g><g class="cls-6"><path d="M14.51,1.59a1,1,0,0,0-1-.78.37.37,0,0,0,0,.74.25.25,0,0,1,.32.23.37.37,0,0,0,.71-.19Z"/></g><g class="cls-6"><path class="cls-5" d="M1.45,13.39c-.12,1.43-.17,3.2,1.08,4.19a.88.88,0,0,0,1.31-.06c.37-.53,0-1.11-.31-1.58A3.87,3.87,0,0,1,3,14.47a3.57,3.57,0,0,0-.06-1,.88.88,0,0,0-1.15-.55c-.56.25-.57,1.09-.56,1.6a5.28,5.28,0,0,0,.56,2.27c.27.57,1.11.07.84-.49a4.4,4.4,0,0,1-.37-1.13,4,4,0,0,1,0-.78c0-.16.16-.61-.07-.45-.41.28.06,1.53.21,1.89.07.18.32.93.51,1s0-.27-.07-.31a3,3,0,0,1-.26-.5,5.7,5.7,0,0,1-.14-2.6c.06-.63-.92-.62-1,0Z"/></g><g class="cls-6"><path class="cls-5" d="M19.45,13.59A5.62,5.62,0,0,1,19,16c-.11.21-.28.36-.4.55s-.41.73.06.11a6.81,6.81,0,0,0,.56-.84c.17-.3.82-1.7.43-1.87-.21-.09-.11.18-.12.34a3.51,3.51,0,0,1-.12.78,4.54,4.54,0,0,1-.61,1.3c-.35.53.5,1,.84.49.49-.73,1.65-3.29.37-3.83a.88.88,0,0,0-1.12.51,5.78,5.78,0,0,0-.21,1.1A4.07,4.07,0,0,1,18,15.89c-.32.46-.87,1-.5,1.6a.9.9,0,0,0,1.3.15c1.36-.85,1.53-2.6,1.6-4.05,0-.62-.95-.62-1,0Z"/></g><path class="cls-1" d="M17.53,12.21a3.83,3.83,0,0,1,2.81-2.16,3.62,3.62,0,0,1,3.43,1.37s1.84-1.78,3.28-1.67a3.62,3.62,0,0,1,3.16,2.33v.34c2-1,3.54,2.6,3.54,2.6,2.67,5.7,3.92,12.6,3.67,14.78-.54,2.14-4.37,5.76-13.57,5.94S10.76,31.51,10.45,30a83.53,83.53,0,0,1,3.71-14.56,4.15,4.15,0,0,1,3.37-3.21"/><path class="cls-10" d="M20.75,14a2.81,2.81,0,0,0-3.22-1.74,4.15,4.15,0,0,0-3.37,3.21A83.53,83.53,0,0,0,10.45,30c.31,1.53,4.2,5.95,13.4,5.76s13-3.8,13.57-5.94c.25-2.18-1-9.08-3.67-14.78s-6.17-1.41-6.17-1.41"/><path class="cls-11" d="M29.38,16.86A5.06,5.06,0,0,0,24,12.7c-3.78.09-4.69,4.35-4.69,4.35"/><path class="cls-11" d="M17.53,12.21a3.83,3.83,0,0,1,2.81-2.16,3.62,3.62,0,0,1,3.43,1.37s1.84-1.78,3.28-1.67a3.62,3.62,0,0,1,3.16,2.33"/><g class="cls-4"><path d="M27.47,26.85A16.37,16.37,0,0,0,31,26.26.63.63,0,0,0,30.67,25a14.47,14.47,0,0,1-3.2.54c-.81.05-.81,1.31,0,1.27Z"/></g><g class="cls-4"><path d="M16.62,26a8.67,8.67,0,0,0,3.55.79.64.64,0,0,0,0-1.27,7.26,7.26,0,0,1-2.91-.61c-.74-.32-1.38.77-.64,1.09Z"/></g><ellipse cx="19.35" cy="23.22" rx="2.91" ry="2.93"/><ellipse class="cls-5" cx="18.63" cy="22.35" rx="1.84" ry="1.19" transform="translate(-8.78 12.57) rotate(-30.55)"/><ellipse class="cls-5" cx="20.91" cy="24.83" rx="1.05" ry="0.36" transform="translate(-11.26 20.45) rotate(-42.14)"/><ellipse cx="28.62" cy="23.22" rx="2.91" ry="2.93"/><ellipse class="cls-5" cx="27.9" cy="22.35" rx="1.84" ry="1.19" transform="translate(-7.49 17.29) rotate(-30.55)"/><ellipse class="cls-5" cx="30.18" cy="24.83" rx="1.05" ry="0.36" transform="translate(-8.86 26.67) rotate(-42.14)"/><g class="cls-6"><path d="M30.37,14.89c1.67.54,2.18,3.59,2.51,5.1l1.22-.34c-.58-2.18-1.3-5.59-3.79-6.3-.67-.2-1.15.85-.49,1.15a1.31,1.31,0,0,1,.75.58l.87-.86a8.75,8.75,0,0,0-1.05-.55c-.6-.27-1.36.49-.76,1a6.75,6.75,0,0,1,2.85,5.48.63.63,0,0,0,.8.61c1.65-.69,1.14-2.22.55-3.59s-1.4-3.5-2.95-4c-1-.31-2.23.42-1.47,1.5C30,15.51,31,16,31.52,16.91A5.46,5.46,0,0,1,32.44,20a.63.63,0,0,0,1.26,0,7.16,7.16,0,0,0-2-4.9c-.19-.21-.39-.4-.59-.59s-.7-.81-.28-.09c.29.52.69,1,1,1.5s2,3.32,1.17,3.65l.8.61a8,8,0,0,0-3.22-6.38l-.77,1a8.75,8.75,0,0,1,1.05.55.64.64,0,0,0,.86-.87,2.43,2.43,0,0,0-1.2-1L30,14.56c1.91.55,2.47,3.77,2.91,5.43a.63.63,0,0,0,1.22-.34c-.45-2.07-1.11-5.24-3.4-6-.77-.26-1.1,1-.33,1.22Z"/></g><g class="cls-6"><path d="M17.32,13.87c-2.28.75-3,3.93-3.4,6a.63.63,0,0,0,1.22.34c.43-1.65,1-4.88,2.91-5.43l-.49-1.15a2.47,2.47,0,0,0-1.2,1,.64.64,0,0,0,.86.87A8.75,8.75,0,0,1,18.27,15l-.77-1a8,8,0,0,0-3.22,6.38l.8-.61c-.79-.33.83-3,1.06-3.46A11.17,11.17,0,0,1,17,14.93c.26-.36.72-.83.09-.39a5.18,5.18,0,0,0-.75.73,7.16,7.16,0,0,0-2,4.9.63.63,0,0,0,1.26,0,5.44,5.44,0,0,1,.92-3.05A24.84,24.84,0,0,1,18.56,15c.88-1.07-.37-1.88-1.42-1.56-1.53.46-2.34,2.58-2.92,3.89s-1.16,3,.53,3.67c.37.16.81-.24.8-.61a6.72,6.72,0,0,1,2.85-5.48c.59-.5-.17-1.27-.77-1a8,8,0,0,0-1,.56l.86.86a1.31,1.31,0,0,1,.75-.58c.66-.3.19-1.35-.49-1.16-2.49.72-3.21,4.13-3.79,6.31l1.22.34c.33-1.51.84-4.56,2.51-5.11.77-.25.44-1.47-.33-1.22Z"/></g><g class="cls-6"><path d="M26.33,15.45a2,2,0,0,1-1.77,1.41c-.75.1-2.45-.11-2.19-1.27l-1.15.15c.42.94,1.68,1.11,2.6,1.19a5.26,5.26,0,0,0,3.41-.82l-.86-.86a3,3,0,0,1-3.66.9c-.73-.34-1.38.75-.64,1.09a4.27,4.27,0,0,0,5.39-1.35c.39-.51-.36-1.19-.86-.87a4,4,0,0,1-2.12.67c-.51,0-1.91,0-2.17-.58a.64.64,0,0,0-1.16.15C20.76,17,22.3,18,23.86,18.14a3.44,3.44,0,0,0,3.69-2.35c.25-.78-1-1.12-1.22-.34Z"/></g><g class="cls-4"><path d="M18.78,30.3c1.4,4.41,10.8,5.57,10.61-.23,0-.61-1-.61-.95,0,.15,4.65-7.67,3.36-8.74,0-.19-.57-1.1-.33-.92.26Z"/></g><path d="M19.26,29.34s6,.69,9.57,0c.86.08-.47,4.08-4,4.12S18.09,29.74,19.26,29.34Z"/><g class="cls-12"><path class="cls-8" d="M22,33.21a2.79,2.79,0,0,1,2.34-1.81c1.78-.15,2.77.12,3.53.76s-1,1.75-1.42,1.69S23.4,33.88,22,33.21Z"/></g><g class="cls-6"><path d="M20.28,11.86a2.54,2.54,0,0,1,.82-.26c.6-.1.34-1-.25-.91a3.19,3.19,0,0,0-1.05.36c-.54.28-.06,1.1.48.81Z"/></g><g class="cls-6"><path d="M28.79,11.49a1.28,1.28,0,0,0-1.33-1c-.61,0-.61,1,0,.95a.35.35,0,0,1,.42.3c.14.6,1.06.35.91-.25Z"/></g><g class="cls-6"><path class="cls-5" d="M12,26.83c-.17,1.85-.24,4.16,1.38,5.45a1.13,1.13,0,0,0,1.69-.07c.48-.7-.07-1.45-.39-2.06A5,5,0,0,1,14,28.24,4.54,4.54,0,0,0,14,26.91a1.14,1.14,0,0,0-1.49-.73c-.72.35-.73,1.41-.72,2.09a7,7,0,0,0,.72,2.94c.35.74,1.44.1,1.09-.64a5.74,5.74,0,0,1-.48-1.45,5.88,5.88,0,0,1-.06-1c0-.22.21-.79-.09-.59-.53.36.07,2,.26,2.45.1.24.41,1.21.65,1.3s0-.34-.07-.4a3,3,0,0,1-.34-.64,7.6,7.6,0,0,1-.18-3.39c.07-.81-1.19-.8-1.26,0Z"/></g><g class="cls-6"><path class="cls-5" d="M35.14,27.1a7.16,7.16,0,0,1-.67,3.3,3,3,0,0,1-.54.69c-.07.06-.56.5-.1.41.25-.06.79-1.09.93-1.33A6.3,6.3,0,0,0,35.3,29c.08-.25.36-1.07.23-1.33-.32-.61-.3.31-.3.38a5.74,5.74,0,0,1-.16,1,5.61,5.61,0,0,1-.79,1.7c-.44.68.65,1.32,1.09.64.63-1,2.12-4.28.48-5a1.14,1.14,0,0,0-1.45.67,8.59,8.59,0,0,0-.27,1.43,5.34,5.34,0,0,1-.82,1.59c-.42.59-1.12,1.3-.64,2.08a1.15,1.15,0,0,0,1.68.18c1.76-1.09,2-3.39,2-5.25,0-.81-1.23-.81-1.26,0Z"/></g></g></g></svg>