<svg xmlns="http://www.w3.org/2000/svg" xmlns:xlink="http://www.w3.org/1999/xlink" viewBox="0 0 44.86 42.14"><defs><style>.cls-1{fill:#ed2223;}.cls-2,.cls-3{fill:none;stroke:#af1a1d;stroke-width:0.64px;}.cls-2{stroke-miterlimit:10;}.cls-3{stroke-linecap:round;stroke-linejoin:round;}.cls-4{opacity:0.3;}.cls-5{fill:#fff;}.cls-6{opacity:0.2;}.cls-7{clip-path:url(#clip-path);}.cls-8{fill:#f16667;}.cls-9{clip-path:url(#clip-path-2);}</style><clipPath id="clip-path"><path d="M26.35,19.91s6,.69,9.57,0c.86.08-.47,4.08-4.05,4.12S25.19,20.31,26.35,19.91Z"/></clipPath><clipPath id="clip-path-2"><path d="M9.13,35.41s6,.69,9.57,0c.86.09-.47,4.08-4,4.12S8,35.81,9.13,35.41Z"/></clipPath></defs><title>Asset 69</title><g id="Layer_2" data-name="Layer 2"><g id="jelly"><path class="cls-1" d="M24.62,2.78A3.83,3.83,0,0,1,27.44.62,3.61,3.61,0,0,1,30.86,2S32.7.21,34.14.32A3.62,3.62,0,0,1,37.3,2.65V3c2-1,3.54,2.61,3.54,2.61,2.67,5.7,3.92,12.59,3.68,14.77-.55,2.14-4.38,5.76-13.58,5.94s-13.09-4.23-13.39-5.76A83.34,83.34,0,0,1,21.25,6a4.15,4.15,0,0,1,3.37-3.21"/><path class="cls-2" d="M27.84,4.52a2.81,2.81,0,0,0-3.22-1.74A4.15,4.15,0,0,0,21.25,6a83.34,83.34,0,0,0-3.7,14.56c.3,1.53,4.19,5.95,13.39,5.76s13-3.8,13.58-5.94c.24-2.18-1-9.07-3.68-14.77s-6.16-1.41-6.16-1.41"/><path class="cls-3" d="M36.47,7.43a5.06,5.06,0,0,0-5.42-4.16c-3.79.09-4.7,4.35-4.7,4.35"/><path class="cls-3" d="M24.62,2.78A3.83,3.83,0,0,1,27.44.62,3.61,3.61,0,0,1,30.86,2S32.7.21,34.14.32A3.62,3.62,0,0,1,37.3,2.65"/><g class="cls-4"><path d="M34.56,17.42a16.37,16.37,0,0,0,3.54-.59.63.63,0,0,0-.34-1.22,14.47,14.47,0,0,1-3.2.54c-.81.05-.81,1.31,0,1.27Z"/></g><g class="cls-4"><path d="M23.71,16.6a8.71,8.71,0,0,0,3.55.79.64.64,0,0,0,0-1.27,7.26,7.26,0,0,1-2.91-.61c-.74-.32-1.38.77-.64,1.09Z"/></g><ellipse cx="26.44" cy="13.79" rx="2.91" ry="2.93"/><ellipse class="cls-5" cx="25.72" cy="12.92" rx="1.84" ry="1.19" transform="matrix(0.86, -0.51, 0.51, 0.86, -3, 14.87)"/><ellipse class="cls-5" cx="28" cy="15.41" rx="1.05" ry="0.36" transform="translate(-3.1 22.77) rotate(-42.14)"/><ellipse cx="35.71" cy="13.79" rx="2.91" ry="2.93"/><ellipse class="cls-5" cx="34.99" cy="12.92" rx="1.84" ry="1.19" transform="translate(-1.71 19.58) rotate(-30.55)"/><ellipse class="cls-5" cx="37.27" cy="15.41" rx="1.05" ry="0.36" transform="translate(-0.7 28.99) rotate(-42.14)"/><g class="cls-6"><path d="M37.46,5.46c1.67.54,2.18,3.59,2.51,5.1l1.22-.34c-.58-2.18-1.3-5.58-3.79-6.3-.67-.2-1.15.85-.49,1.15a1.31,1.31,0,0,1,.75.58l.87-.86a8.75,8.75,0,0,0-1.05-.55c-.59-.27-1.36.49-.76,1a6.77,6.77,0,0,1,2.85,5.48.63.63,0,0,0,.8.61c1.65-.69,1.14-2.22.55-3.59s-1.4-3.5-3-4c-1-.31-2.23.42-1.47,1.5.59.82,1.54,1.34,2.11,2.22a5.46,5.46,0,0,1,.92,3,.64.64,0,0,0,1.27,0,7.22,7.22,0,0,0-2-4.9c-.19-.21-.39-.4-.59-.59s-.7-.81-.28-.08c.29.51.69,1,1,1.49s2,3.32,1.17,3.65l.8.61a7.93,7.93,0,0,0-3.22-6.37l-.77,1a8.06,8.06,0,0,1,1,.55A.64.64,0,0,0,38.75,5a2.43,2.43,0,0,0-1.2-1l-.49,1.16C39,5.69,39.54,8.91,40,10.56a.63.63,0,0,0,1.22-.34c-.45-2.06-1.11-5.24-3.39-6-.78-.26-1.11,1-.34,1.22Z"/></g><g class="cls-6"><path d="M24.41,4.45c-2.28.74-2.95,3.92-3.4,6a.63.63,0,0,0,1.22.34c.44-1.64,1-4.88,2.91-5.43l-.49-1.15a2.47,2.47,0,0,0-1.2,1,.64.64,0,0,0,.87.87,7.93,7.93,0,0,1,1-.55l-.77-1a8,8,0,0,0-3.22,6.38l.8-.61c-.78-.33.83-3,1.07-3.46a10,10,0,0,1,.87-1.35c.27-.36.72-.83.1-.39a5.25,5.25,0,0,0-.76.73,7.16,7.16,0,0,0-2,4.9.63.63,0,0,0,1.26,0,5.52,5.52,0,0,1,.92-3,24.84,24.84,0,0,1,2.06-2.16c.88-1.07-.36-1.88-1.41-1.56-1.54.46-2.35,2.58-2.92,3.9s-1.17,3,.52,3.66c.37.16.81-.24.8-.61a6.72,6.72,0,0,1,2.85-5.48c.59-.5-.17-1.27-.77-1a6.89,6.89,0,0,0-1,.55l.86.86a1.31,1.31,0,0,1,.75-.58c.66-.3.19-1.35-.49-1.15-2.48.71-3.21,4.12-3.79,6.3l1.22.34c.33-1.51.84-4.56,2.51-5.11.77-.25.44-1.47-.33-1.21Z"/></g><g class="cls-6"><path d="M33.43,6a2,2,0,0,1-1.78,1.41c-.74.1-2.45-.11-2.19-1.27l-1.15.16c.42.93,1.68,1.1,2.6,1.18a5.36,5.36,0,0,0,3.42-.81l-.87-.87a3,3,0,0,1-3.66.9c-.73-.34-1.38.75-.64,1.09a4.27,4.27,0,0,0,5.39-1.35c.39-.51-.36-1.19-.86-.87a4,4,0,0,1-2.12.67c-.51,0-1.91,0-2.17-.58a.64.64,0,0,0-1.16.15C27.86,7.57,29.39,8.57,31,8.71a3.46,3.46,0,0,0,3.7-2.35A.63.63,0,0,0,33.43,6Z"/></g><g class="cls-4"><path d="M25.87,20.87c1.41,4.41,10.8,5.57,10.61-.23a.48.48,0,0,0-.95,0c.15,4.65-7.67,3.36-8.74,0-.19-.58-1.1-.34-.92.25Z"/></g><path d="M26.35,19.91s6,.69,9.57,0c.86.08-.47,4.08-4.05,4.12S25.19,20.31,26.35,19.91Z"/><g class="cls-7"><path class="cls-8" d="M29.07,23.78A2.81,2.81,0,0,1,31.41,22c1.79-.15,2.77.12,3.54.76s-1,1.75-1.43,1.69S30.49,24.45,29.07,23.78Z"/></g><g class="cls-6"><path d="M27.37,2.44a2.4,2.4,0,0,1,.82-.27c.6-.1.35-1-.25-.91a3.27,3.27,0,0,0-1.05.36c-.54.28-.06,1.1.48.82Z"/></g><g class="cls-6"><path d="M35.88,2.06a1.29,1.29,0,0,0-1.33-1c-.6,0-.61,1,0,.95a.35.35,0,0,1,.42.31c.14.59,1.06.34.91-.26Z"/></g><g class="cls-6"><path class="cls-5" d="M19.09,17.4c-.16,1.85-.23,4.16,1.39,5.45a1.12,1.12,0,0,0,1.68-.07c.48-.7-.07-1.45-.39-2.06a5.14,5.14,0,0,1-.64-1.91,4.54,4.54,0,0,0-.07-1.33,1.14,1.14,0,0,0-1.49-.73c-.72.35-.72,1.41-.72,2.09a7,7,0,0,0,.72,2.94c.35.74,1.44.1,1.09-.63a5.79,5.79,0,0,1-.47-1.46,5,5,0,0,1-.07-1c0-.22.21-.79-.09-.59-.53.36.07,2,.26,2.45.1.24.41,1.21.65,1.3s0-.34-.07-.4a3,3,0,0,1-.34-.64,7.6,7.6,0,0,1-.18-3.39c.08-.81-1.19-.8-1.26,0Z"/></g><g class="cls-6"><path class="cls-5" d="M42.23,17.67a7,7,0,0,1-.67,3.3,3,3,0,0,1-.54.69c-.07.06-.56.5-.1.41.25-.06.79-1.09.93-1.32a6.05,6.05,0,0,0,.54-1.19c.08-.25.36-1.07.23-1.33-.32-.61-.29.31-.3.38a4.84,4.84,0,0,1-.16,1,5.84,5.84,0,0,1-.78,1.7c-.45.68.64,1.32,1.09.64.62-1,2.12-4.28.48-5a1.14,1.14,0,0,0-1.46.66,8.59,8.59,0,0,0-.27,1.43,5.12,5.12,0,0,1-.82,1.59c-.41.59-1.11,1.3-.64,2.08a1.15,1.15,0,0,0,1.68.18c1.76-1.09,2-3.39,2.05-5.25,0-.81-1.23-.81-1.26,0Z"/></g><path class="cls-1" d="M7.4,18.28a3.83,3.83,0,0,1,2.81-2.16,3.62,3.62,0,0,1,3.43,1.38s1.84-1.79,3.27-1.68a3.64,3.64,0,0,1,3.17,2.33v.34c2-1,3.54,2.61,3.54,2.61,2.67,5.7,3.92,12.59,3.67,14.77-.54,2.14-4.37,5.76-13.57,5.94S.63,37.58.32,36.05A83.57,83.57,0,0,1,4,21.5,4.14,4.14,0,0,1,7.4,18.28"/><path class="cls-2" d="M10.62,20A2.81,2.81,0,0,0,7.4,18.28,4.14,4.14,0,0,0,4,21.5,83.57,83.57,0,0,0,.32,36.05c.31,1.53,4.2,6,13.4,5.76s13-3.8,13.57-5.94c.25-2.18-1-9.07-3.67-14.77s-6.17-1.41-6.17-1.41"/><path class="cls-3" d="M19.25,22.94a5.07,5.07,0,0,0-5.43-4.17c-3.78.09-4.69,4.35-4.69,4.35"/><path class="cls-3" d="M7.4,18.28a3.83,3.83,0,0,1,2.81-2.16,3.62,3.62,0,0,1,3.43,1.38s1.84-1.79,3.27-1.68a3.64,3.64,0,0,1,3.17,2.33"/><g class="cls-4"><path d="M17.34,32.92a16.37,16.37,0,0,0,3.54-.59.63.63,0,0,0-.34-1.22,14.47,14.47,0,0,1-3.2.54c-.81.05-.81,1.31,0,1.27Z"/></g><g class="cls-4"><path d="M6.49,32.11a8.83,8.83,0,0,0,3.55.78.64.64,0,0,0,0-1.27A7.1,7.1,0,0,1,7.13,31c-.74-.32-1.38.77-.64,1.1Z"/></g><ellipse cx="9.22" cy="29.3" rx="2.91" ry="2.93"/><ellipse class="cls-5" cx="8.5" cy="28.43" rx="1.84" ry="1.19" transform="matrix(0.86, -0.51, 0.51, 0.86, -13.27, 8.27)"/><ellipse class="cls-5" cx="10.78" cy="30.91" rx="1.05" ry="0.36" transform="translate(-17.95 15.22) rotate(-42.14)"/><ellipse cx="18.49" cy="29.3" rx="2.91" ry="2.93"/><ellipse class="cls-5" cx="17.77" cy="28.43" rx="1.84" ry="1.19" transform="translate(-11.98 12.98) rotate(-30.55)"/><ellipse class="cls-5" cx="20.05" cy="30.91" rx="1.05" ry="0.36" transform="translate(-15.55 21.44) rotate(-42.14)"/><g class="cls-6"><path d="M20.24,21c1.67.54,2.18,3.59,2.51,5.1L24,25.72c-.58-2.18-1.3-5.58-3.79-6.3-.67-.19-1.15.85-.49,1.15a1.31,1.31,0,0,1,.75.58l.86-.86a7.93,7.93,0,0,0-1-.55c-.6-.27-1.36.49-.77,1,1.7,1.42,3,3.2,2.86,5.49a.63.63,0,0,0,.8.6c1.65-.69,1.14-2.22.55-3.59s-1.4-3.5-2.95-4c-1-.31-2.23.42-1.47,1.5.58.82,1.54,1.34,2.11,2.22A5.46,5.46,0,0,1,22.31,26a.63.63,0,0,0,1.26,0,7.16,7.16,0,0,0-2-4.9l-.59-.59c-.21-.18-.7-.81-.28-.08.29.52.69,1,1,1.49s2,3.32,1.17,3.66l.8.61a7.93,7.93,0,0,0-3.22-6.38l-.77,1a8.75,8.75,0,0,1,1.05.55.63.63,0,0,0,.86-.86,2.44,2.44,0,0,0-1.2-1l-.49,1.16c1.91.55,2.47,3.77,2.91,5.42A.63.63,0,0,0,24,25.72c-.45-2.06-1.11-5.24-3.4-6-.77-.25-1.1,1-.33,1.22Z"/></g><g class="cls-6"><path d="M7.19,20c-2.28.74-2.95,3.92-3.4,6A.63.63,0,0,0,5,26.27c.43-1.64,1-4.88,2.91-5.42l-.49-1.16a2.42,2.42,0,0,0-1.2,1,.64.64,0,0,0,.86.87A8.75,8.75,0,0,1,8.14,21l-.77-1a7.93,7.93,0,0,0-3.22,6.37l.8-.61c-.79-.32.83-3,1.06-3.46A11.17,11.17,0,0,1,6.89,21c.26-.36.72-.83.09-.39a5.18,5.18,0,0,0-.75.73,7.16,7.16,0,0,0-2,4.9.63.63,0,0,0,1.26,0,5.46,5.46,0,0,1,.92-3A24.84,24.84,0,0,1,8.43,21C9.31,20,8.06,19.15,7,19.47c-1.53.46-2.34,2.58-2.92,3.9s-1.16,3,.52,3.66a.63.63,0,0,0,.8-.61,6.73,6.73,0,0,1,2.86-5.48c.59-.5-.17-1.26-.77-1a7.93,7.93,0,0,0-1,.55l.86.86a1.31,1.31,0,0,1,.75-.58c.66-.3.19-1.35-.49-1.15-2.49.71-3.21,4.12-3.79,6.3L5,26.27c.33-1.51.84-4.56,2.51-5.1.77-.26.44-1.48-.33-1.22Z"/></g><g class="cls-6"><path d="M16.2,21.52a2,2,0,0,1-1.77,1.41c-.75.1-2.45-.11-2.19-1.26l-1.15.15c.42.94,1.68,1.1,2.6,1.18a5.31,5.31,0,0,0,3.41-.81l-.86-.87a3,3,0,0,1-3.66.9c-.73-.34-1.38.75-.64,1.09A4.27,4.27,0,0,0,17.33,22c.39-.51-.36-1.19-.86-.86a4,4,0,0,1-2.13.66c-.5,0-1.9,0-2.16-.58a.64.64,0,0,0-1.16.15c-.39,1.74,1.15,2.75,2.71,2.88a3.44,3.44,0,0,0,3.69-2.35c.25-.78-1-1.11-1.22-.34Z"/></g><g class="cls-4"><path d="M8.65,36.37c1.4,4.41,10.8,5.57,10.61-.23,0-.61-1-.61-1,0,.15,4.65-7.67,3.36-8.75,0-.18-.58-1.09-.34-.91.25Z"/></g><path d="M9.13,35.41s6,.69,9.57,0c.86.09-.47,4.08-4,4.12S8,35.81,9.13,35.41Z"/><g class="cls-9"><path class="cls-8" d="M11.85,39.28a2.79,2.79,0,0,1,2.34-1.81c1.78-.15,2.77.12,3.53.77s-1,1.74-1.42,1.68S13.27,40,11.85,39.28Z"/></g><g class="cls-6"><path d="M10.15,17.94a2.55,2.55,0,0,1,.82-.27c.6-.1.34-1-.25-.91a3.19,3.19,0,0,0-1.05.36c-.54.28-.06,1.1.48.82Z"/></g><g class="cls-6"><path d="M18.66,17.56a1.3,1.3,0,0,0-1.33-1c-.61,0-.61,1,0,1a.36.36,0,0,1,.42.31c.14.59,1.05.34.91-.26Z"/></g><g class="cls-6"><path class="cls-5" d="M1.87,32.91c-.17,1.85-.24,4.15,1.38,5.44a1.13,1.13,0,0,0,1.69-.07c.48-.69-.07-1.44-.39-2.06a4.81,4.81,0,0,1-.64-1.9A4.63,4.63,0,0,0,3.84,33a1.14,1.14,0,0,0-1.49-.73c-.72.35-.73,1.41-.72,2.09a6.82,6.82,0,0,0,.72,2.94c.35.74,1.44.1,1.09-.63A5.82,5.82,0,0,1,3,35.19a5,5,0,0,1-.06-1c0-.22.21-.79-.09-.59-.53.36.06,2,.26,2.45.1.24.4,1.21.65,1.31s0-.35-.07-.4a3.36,3.36,0,0,1-.34-.65,7.56,7.56,0,0,1-.18-3.38c.07-.81-1.19-.81-1.26,0Z"/></g><g class="cls-6"><path class="cls-5" d="M25,33.17a7.2,7.2,0,0,1-.67,3.31,2.75,2.75,0,0,1-.54.68c-.07.06-.56.5-.1.41.25,0,.79-1.09.93-1.32a6.39,6.39,0,0,0,.54-1.19c.08-.25.36-1.07.23-1.33-.32-.61-.3.32-.3.39a5.89,5.89,0,0,1-.16,1,5.67,5.67,0,0,1-.79,1.69c-.44.69.65,1.32,1.09.64.63-1,2.12-4.28.48-5a1.13,1.13,0,0,0-1.45.66A8.59,8.59,0,0,0,24,34.57a5.22,5.22,0,0,1-.82,1.59c-.42.6-1.12,1.3-.64,2.08a1.15,1.15,0,0,0,1.68.18c1.76-1.09,2-3.39,2.05-5.25,0-.81-1.23-.81-1.26,0Z"/></g></g></g></svg>