<svg xmlns="http://www.w3.org/2000/svg" xmlns:xlink="http://www.w3.org/1999/xlink" viewBox="0 0 33.78 32.27"><defs><style>.cls-1{fill:#ed2223;}.cls-2,.cls-3{fill:none;stroke:#af1a1d;stroke-width:0.77px;}.cls-2{stroke-miterlimit:10;}.cls-3{stroke-linecap:round;stroke-linejoin:round;}.cls-4{opacity:0.3;}.cls-5{fill:#fff;}.cls-6{opacity:0.2;}.cls-7{clip-path:url(#clip-path);}.cls-8{fill:#f16667;}</style><clipPath id="clip-path"><path d="M11.16,24.12s7.28.84,11.69,0c1,.11-.58,4.94-5,5S9.73,24.61,11.16,24.12Z"/></clipPath></defs><title>Asset 68</title><g id="Layer_2" data-name="Layer 2"><g id="jelly"><path class="cls-1" d="M9,3.36A4.68,4.68,0,0,1,12.48.75a4.45,4.45,0,0,1,4.19,1.67s2.25-2.16,4-2a4.43,4.43,0,0,1,3.87,2.82v.41c2.4-1.16,4.33,3.16,4.33,3.16,3.26,6.91,4.78,15.26,4.49,17.9-.67,2.6-5.35,7-16.6,7.2s-16-5.12-16.37-7A101.35,101.35,0,0,1,4.92,7.26,5.09,5.09,0,0,1,9,3.36"/><path class="cls-2" d="M13,5.48A3.45,3.45,0,0,0,9,3.36a5.09,5.09,0,0,0-4.12,3.9A101.35,101.35,0,0,0,.39,24.9c.38,1.86,5.13,7.2,16.37,7s15.93-4.6,16.6-7.2c.29-2.64-1.23-11-4.49-17.9s-7.54-1.71-7.54-1.71"/><path class="cls-3" d="M23.52,9a6.17,6.17,0,0,0-6.63-5c-4.62.11-5.73,5.27-5.73,5.27"/><path class="cls-3" d="M9,3.36A4.68,4.68,0,0,1,12.48.75a4.45,4.45,0,0,1,4.19,1.67s2.25-2.16,4-2a4.43,4.43,0,0,1,3.87,2.82"/><g class="cls-4"><path d="M21.19,21.11a21.16,21.16,0,0,0,4.33-.71.77.77,0,0,0-.41-1.49,18.68,18.68,0,0,1-3.92.66c-1,.05-1,1.59,0,1.54Z"/></g><g class="cls-4"><path d="M7.93,20.12a10.82,10.82,0,0,0,4.33.95.77.77,0,0,0,0-1.54,8.86,8.86,0,0,1-3.55-.74c-.9-.39-1.69.93-.78,1.33Z"/></g><circle cx="11.27" cy="16.71" r="3.55"/><ellipse class="cls-5" cx="10.39" cy="15.66" rx="2.24" ry="1.45" transform="translate(-6.44 7.3) rotate(-30.01)"/><ellipse class="cls-5" cx="13.17" cy="18.67" rx="1.27" ry="0.44" transform="translate(-9.09 13.54) rotate(-41.82)"/><circle cx="22.6" cy="16.71" r="3.55"/><ellipse class="cls-5" cx="21.72" cy="15.66" rx="2.24" ry="1.45" transform="translate(-4.92 12.97) rotate(-30.01)"/><ellipse class="cls-5" cx="24.51" cy="18.67" rx="1.27" ry="0.44" transform="translate(-6.2 21.1) rotate(-41.82)"/><g class="cls-6"><path d="M24.74,6.61c2,.67,2.66,4.35,3.07,6.18l1.48-.4c-.71-2.66-1.6-6.78-4.63-7.65-.81-.23-1.4,1-.59,1.41a1.62,1.62,0,0,1,.91.7L26,5.8a10.39,10.39,0,0,0-1.28-.67c-.72-.32-1.66.6-.93,1.21,2.06,1.71,3.61,3.86,3.48,6.64a.77.77,0,0,0,1,.74c1.89-.78,1.46-2.43.8-4.05s-1.77-4.53-3.74-5.12c-1.23-.37-2.71.51-1.78,1.82.71,1,1.87,1.63,2.58,2.7a6.57,6.57,0,0,1,1.12,3.69.77.77,0,0,0,1.54,0,8.65,8.65,0,0,0-2.5-5.94,9.81,9.81,0,0,0-.73-.71c-.25-.23-.85-1-.34-.1.37.63.85,1.16,1.21,1.8s2.41,4,1.43,4.43l1,.74C29,9.83,27.27,7.2,24.91,5.25L24,6.46a10.39,10.39,0,0,1,1.28.67.77.77,0,0,0,1-1,2.93,2.93,0,0,0-1.47-1.26l-.59,1.41c2.32.66,3,4.55,3.56,6.56a.77.77,0,0,0,1.48-.4C28.74,9.87,27.92,6,25.14,5.13c-.94-.3-1.34,1.18-.4,1.48Z"/></g><g class="cls-6"><path d="M8.78,5.38c-2.77.9-3.6,4.75-4.14,7.26a.77.77,0,0,0,1.48.41c.53-2,1.24-5.91,3.56-6.57l-.6-1.41A3.06,3.06,0,0,0,7.61,6.33a.78.78,0,0,0,1.06,1,10.26,10.26,0,0,1,1.27-.67L9,5.5c-2.36,2-4.07,4.58-3.93,7.73l1-.74c-1-.4,1-3.62,1.3-4.19A12.47,12.47,0,0,1,8.42,6.66c.32-.43.88-1,.12-.47a6.38,6.38,0,0,0-.92.88A8.65,8.65,0,0,0,5.12,13a.77.77,0,0,0,1.54,0A6.59,6.59,0,0,1,7.78,9.32,32.92,32.92,0,0,1,10.3,6.7c1.07-1.3-.46-2.28-1.73-1.89C6.67,5.38,5.64,8,4.94,9.68s-1.29,3.47.7,4.3a.77.77,0,0,0,1-.75C6.49,10.45,8,8.3,10.1,6.59c.72-.6-.2-1.53-.93-1.21a12,12,0,0,0-1.28.67l1,1a1.64,1.64,0,0,1,.92-.7c.8-.36.23-1.64-.59-1.4-3,.86-3.93,5-4.63,7.64l1.48.41c.4-1.84,1-5.52,3.07-6.18.94-.31.54-1.79-.41-1.49Z"/></g><g class="cls-6"><path d="M19.81,7.29A2.46,2.46,0,0,1,17.64,9c-.88.11-3-.11-2.68-1.53l-1.41.18C14.07,8.8,15.61,9,16.73,9.09a6.51,6.51,0,0,0,4.17-1l-1-1a3.64,3.64,0,0,1-4.48,1.09c-.89-.41-1.67.92-.77,1.33a5.24,5.24,0,0,0,6.58-1.64c.47-.62-.44-1.45-1.05-1a5,5,0,0,1-2.6.8c-.61,0-2.33,0-2.65-.7a.78.78,0,0,0-1.41.18c-.47,2.12,1.42,3.33,3.31,3.49A4.2,4.2,0,0,0,21.29,7.7c.3-.94-1.19-1.35-1.48-.41Z"/></g><g class="cls-4"><path d="M10.57,25.28c1.81,5.26,13.2,6.81,13-.27,0-.74-1.18-.75-1.16,0,.19,5.73-9.33,3.93-10.69,0-.24-.7-1.36-.4-1.12.3Z"/></g><path d="M11.16,24.12s7.28.84,11.69,0c1,.11-.58,4.94-5,5S9.73,24.61,11.16,24.12Z"/><g class="cls-7"><path class="cls-8" d="M14.48,28.82a3.42,3.42,0,0,1,2.86-2.2c2.18-.19,3.39.15,4.32.93s-1.19,2.11-1.75,2S16.21,29.62,14.48,28.82Z"/></g><g class="cls-6"><path d="M12.4,3a3.16,3.16,0,0,1,1-.32c.73-.11.42-1.22-.3-1.11A4,4,0,0,0,11.81,2c-.65.35-.07,1.34.59,1Z"/></g><g class="cls-6"><path d="M22.8,2.5a1.55,1.55,0,0,0-1.62-1.22c-.74.05-.74,1.21,0,1.15a.44.44,0,0,1,.51.38c.16.72,1.28.41,1.11-.31Z"/></g><g class="cls-6"><path class="cls-5" d="M2.28,21.09c-.2,2.25-.28,5,1.7,6.6A1.37,1.37,0,0,0,6,27.6c.59-.84-.08-1.75-.48-2.5a5.91,5.91,0,0,1-.77-2.3,5.82,5.82,0,0,0-.09-1.62,1.39,1.39,0,0,0-1.82-.89C2,20.7,2,22,2,22.82a8.47,8.47,0,0,0,.88,3.57c.43.9,1.76.12,1.33-.77a6.93,6.93,0,0,1-.58-1.77,6.31,6.31,0,0,1-.09-1.23c0-.26.26-1-.1-.71-.64.44.09,2.4.32,3,.12.28.5,1.47.8,1.58.46.16,0-.43-.09-.49A3.91,3.91,0,0,1,4,25.19a9.15,9.15,0,0,1-.22-4.1c.09-1-1.45-1-1.54,0Z"/></g><g class="cls-6"><path class="cls-5" d="M30.56,21.41a8.45,8.45,0,0,1-.81,4,3.55,3.55,0,0,1-.66.83l-.42.31.29.19c.34-.12.95-1.29,1.14-1.6a7.15,7.15,0,0,0,.65-1.44c.1-.31.45-1.29.28-1.61-.37-.73-.35.38-.35.46a6.31,6.31,0,0,1-.2,1.23,7.11,7.11,0,0,1-1,2c-.54.83.79,1.6,1.33.78.76-1.16,2.58-5.19.59-6.05a1.42,1.42,0,0,0-1.78.81,11.36,11.36,0,0,0-.33,1.74,6.18,6.18,0,0,1-1,1.92c-.51.72-1.36,1.58-.78,2.52a1.42,1.42,0,0,0,2.05.23c2.14-1.32,2.4-4.11,2.5-6.37,0-1-1.49-1-1.54,0Z"/></g></g></g></svg>